# File produced by Open Asset Import Library (http://www.assimp.sf.net)
# (assimp v3.2.0)

mtllib Cuboid_00005.obj.mtl

# 8 vertex positions
v  0.016 -0.044 -0.0254
v  0.016 0.044 -0.0254
v  0.016 0.044 0.0254
v  0.016 -0.044 0.0254
v  -0.016 -0.044 0.0254
v  -0.016 0.044 0.0254
v  -0.016 -0.044 -0.0254
v  -0.016 0.044 -0.0254

# 0 UV coordinates

# 4 vertex normals
vn 1 0 0
vn 0 0 -1
vn 0 0 1
vn 0 1 0

# Mesh '<STL_BINARY>' with 12 faces
g <STL_BINARY>
usemtl DefaultMaterial
f  1//1 2//1 3//1
f  1//1 3//1 4//1
f  3//2 4//2 5//2
f  3//2 5//2 6//2
f  6//1 5//1 7//1
f  6//1 7//1 8//1
f  8//3 7//3 1//3
f  8//3 1//3 2//3
f  2//4 8//4 6//4
f  2//4 6//4 3//4
f  1//4 7//4 5//4
f  1//4 5//4 4//4

